<?xml version="1.0" standalone="no"?>
<!DOCTYPE svg PUBLIC "-//W3C//DTD SVG 20010904//EN"
 "http://www.w3.org/TR/2001/REC-SVG-20010904/DTD/svg10.dtd">
<svg version="1.0" xmlns="http://www.w3.org/2000/svg"
 width="317.000000pt" height="314.000000pt" viewBox="0 0 317.000000 314.000000"
 preserveAspectRatio="xMidYMid meet">

<g transform="translate(0.000000,314.000000) scale(0.100000,-0.100000)"
fill="#ffffff" stroke="none">
<path d="M1090 2908 c0 -9 7 -51 15 -94 8 -44 35 -200 60 -349 52 -305 52
-305 69 -305 14 0 26 255 26 566 0 196 8 180 -101 190 -58 6 -69 4 -69 -8z"/>
<path d="M690 2863 c-60 -22 -130 -57 -128 -64 2 -5 78 -98 169 -206 92 -109
216 -256 275 -327 102 -121 134 -152 134 -128 0 5 -90 171 -199 368 -200 360
-209 373 -251 357z"/>
<path d="M1325 2763 c-4 -60 -17 -219 -29 -355 -17 -198 -19 -248 -9 -248 7 0
13 2 13 4 0 6 155 541 176 608 4 13 -11 28 -57 58 -34 22 -68 40 -75 40 -8 0
-14 -32 -19 -107z"/>
<path d="M440 2709 c-39 -55 -48 -103 -24 -130 10 -12 92 -57 182 -102 187
-92 232 -127 232 -179 0 -34 5 -39 126 -122 80 -56 131 -85 141 -82 14 6 14 9
-3 29 -48 56 -609 627 -616 627 -4 0 -21 -19 -38 -41z"/>
<path d="M1530 2361 c-85 -120 -155 -225 -155 -232 0 -8 5 -14 11 -14 7 0 101
85 209 190 l198 190 -49 42 c-27 24 -51 43 -54 43 -3 0 -75 -99 -160 -219z"/>
<path d="M1625 2275 c-115 -97 -211 -179 -213 -184 -10 -30 44 -6 270 120 139
78 270 151 290 163 l37 21 -67 23 c-37 13 -76 25 -87 27 -15 4 -77 -43 -230
-170z"/>
<path d="M2245 2134 c-385 -67 -778 -134 -787 -134 -5 0 -8 -6 -8 -14 0 -15
110 -20 696 -32 l311 -6 42 58 c48 67 90 187 64 183 -5 -1 -147 -26 -318 -55z"/>
<path d="M701 2069 c-13 -22 -21 -42 -20 -44 2 -1 60 -8 129 -14 69 -6 151
-14 183 -17 47 -5 57 -3 57 10 0 10 -15 19 -42 26 -34 9 -183 51 -269 76 -10
3 -23 -10 -38 -37z"/>
<path d="M551 1949 c-6 -17 -11 -49 -11 -69 l0 -37 218 37 c312 54 292 50 292
71 0 18 -11 19 -214 19 -117 0 -227 3 -243 6 -27 5 -31 3 -42 -27z"/>
<path d="M1443 1933 c-3 -8 -4 -16 -1 -18 5 -5 844 -245 857 -245 5 0 7 24 4
53 -4 41 -1 64 15 99 l20 46 -147 12 c-80 6 -280 24 -445 39 -247 23 -299 25
-303 14z"/>
<path d="M1428 1878 c-3 -8 45 -43 131 -94 764 -456 832 -494 851 -484 58 31
76 109 44 190 -9 22 -17 40 -19 40 -4 0 -950 340 -986 355 -10 4 -19 1 -21 -7z"/>
<path d="M890 1760 c-96 -54 -182 -103 -190 -108 -12 -8 -10 -16 13 -51 16
-23 33 -41 39 -39 21 7 337 273 334 282 -1 6 -6 11 -12 13 -5 1 -88 -42 -184
-97z"/>
<path d="M948 1669 c-87 -83 -158 -156 -158 -163 0 -14 62 -76 75 -75 11 0
252 348 257 369 8 36 -31 6 -174 -131z"/>
<path d="M1361 1778 c11 -22 90 -160 94 -166 1 -1 25 -8 54 -16 60 -15 65 -26
-52 112 -43 50 -85 92 -93 92 -12 0 -13 -4 -3 -22z"/>
<path d="M1041 1607 c-61 -101 -113 -191 -117 -200 -4 -10 7 -24 33 -41 39
-27 63 -33 63 -16 0 6 34 103 76 216 50 136 73 209 66 216 -6 6 -47 -53 -121
-175z"/>
<path d="M1308 1774 c-5 -5 0 -31 33 -156 9 -35 10 -36 39 -25 17 6 30 15 30
19 0 16 -80 168 -88 168 -5 0 -11 -3 -14 -6z"/>
<path d="M1250 1606 c0 -89 -3 -192 -7 -227 -6 -58 -5 -63 9 -51 16 13 23 40
48 168 10 51 9 78 -5 167 -13 75 -22 107 -31 107 -11 0 -14 -33 -14 -164z"/>
<path d="M692 980 c-30 -13 -39 -43 -34 -117 5 -77 20 -83 24 -10 l3 52 53 3
c56 3 74 -15 20 -20 -27 -2 -34 -8 -36 -30 -4 -30 25 -52 52 -42 9 3 16 1 16
-5 0 -6 5 -11 10 -11 6 0 10 25 10 55 l0 55 32 0 c29 0 30 -1 16 -17 -15 -17
-14 -81 1 -84 3 -1 23 -3 44 -4 l37 -2 0 53 c0 47 2 54 20 54 18 0 20 -7 20
-55 0 -30 5 -55 10 -55 6 0 10 25 10 55 0 30 5 55 10 55 6 0 10 5 10 10 0 6
-35 10 -86 10 -47 0 -83 4 -80 9 3 4 -1 16 -8 26 -15 21 -116 31 -154 15z
m126 -16 c38 -26 25 -34 -58 -34 -63 0 -80 3 -80 15 0 34 97 48 138 19z m102
-83 c0 -29 -22 -61 -42 -61 -6 0 -8 10 -4 24 4 15 1 26 -7 29 -7 3 -5 6 6 6 9
1 17 8 17 16 0 8 7 15 15 15 10 0 15 -10 15 -29z m-136 -20 c8 -12 -21 -34
-34 -26 -17 11 -11 35 9 35 11 0 22 -4 25 -9z"/>
<path d="M1584 975 c-4 -8 -4 -22 0 -30 5 -13 -11 -15 -109 -15 -70 0 -115 -4
-115 -10 0 -5 9 -10 20 -10 28 0 28 -46 -1 -53 -20 -5 -20 -7 -4 -31 10 -14
24 -26 31 -26 17 0 18 17 2 23 -10 3 -10 9 0 26 6 11 12 30 12 41 0 13 7 20
20 20 13 0 20 -7 20 -20 0 -11 -7 -20 -15 -20 -8 0 -15 -4 -15 -10 0 -5 7 -10
15 -10 9 0 15 -9 15 -25 0 -14 5 -25 10 -25 6 0 10 25 10 55 l0 55 50 0 c28 0
50 -4 50 -10 0 -5 -13 -10 -29 -10 -26 0 -41 -14 -41 -40 0 -18 33 -40 51 -35
11 4 19 2 19 -4 0 -6 5 -11 10 -11 6 0 10 24 10 54 0 34 5 57 13 60 10 5 10 7
0 12 -7 3 -13 16 -13 29 0 13 6 26 13 28 7 3 5 6 -6 6 -10 1 -20 -6 -23 -14z
m-7 -121 c5 -15 -28 -27 -40 -15 -5 5 -6 14 -2 21 8 13 37 9 42 -6z"/>
<path d="M1250 960 c0 -5 5 -10 10 -10 6 0 10 5 10 10 0 6 -4 10 -10 10 -5 0
-10 -4 -10 -10z"/>
<path d="M1047 933 c-3 -4 -5 -31 -5 -60 -1 -43 3 -53 18 -58 11 -3 28 -1 40
5 16 9 20 8 20 -5 0 -8 5 -15 10 -15 6 0 10 25 10 55 l0 55 55 0 c41 0 55 -4
55 -14 0 -10 -13 -16 -37 -18 -33 -3 -38 -6 -38 -28 0 -33 44 -42 52 -11 8 31
23 25 23 -9 0 -16 5 -30 10 -30 6 0 10 25 10 55 0 30 5 55 10 55 6 0 10 5 10
10 0 6 -37 10 -90 10 l-89 0 6 -30 c6 -32 -17 -70 -44 -70 -17 0 -17 26 0 34
10 5 10 7 0 12 -7 3 -13 10 -13 15 0 5 6 8 13 7 6 -2 12 6 12 17 0 20 -29 33
-38 18z m163 -83 c0 -5 -4 -10 -10 -10 -5 0 -10 5 -10 10 0 6 5 10 10 10 6 0
10 -4 10 -10z"/>
<path d="M1653 928 c-15 -19 -13 -96 4 -109 10 -9 20 -9 38 -1 21 10 25 9 25
-3 0 -8 5 -15 10 -15 6 0 10 25 10 55 l0 55 55 0 c42 0 55 -3 55 -15 0 -10
-10 -15 -29 -15 -33 0 -54 -20 -45 -44 9 -23 45 -20 51 4 8 30 23 24 23 -10 0
-16 5 -30 10 -30 6 0 10 25 10 55 0 30 5 55 10 55 6 0 10 5 10 10 0 6 -36 10
-89 10 l-90 0 6 -33 c5 -35 -18 -72 -40 -64 -18 6 -20 27 -3 27 9 0 16 5 16
10 0 6 -7 10 -15 10 -22 0 -18 17 6 23 12 3 19 12 17 19 -6 18 -33 22 -45 6z
m157 -78 c0 -5 -4 -10 -10 -10 -5 0 -10 5 -10 10 0 6 5 10 10 10 6 0 10 -4 10
-10z"/>
<path d="M2087 934 c-4 -4 -7 -31 -7 -60 0 -55 16 -73 54 -58 9 3 16 1 16 -5
0 -6 7 -11 15 -11 12 0 15 13 15 55 0 42 3 55 15 55 12 0 15 -13 15 -55 0 -42
3 -55 15 -55 12 0 15 13 15 55 l0 55 55 0 c41 0 55 -4 55 -14 0 -10 -13 -16
-37 -18 -33 -3 -38 -6 -38 -28 0 -33 44 -42 52 -11 8 31 23 25 23 -9 0 -16 5
-30 10 -30 6 0 10 25 10 55 0 49 2 55 21 55 20 0 21 -4 15 -40 l-6 -41 35 7
c31 5 35 4 35 -15 0 -11 5 -21 10 -21 6 0 10 25 10 55 0 30 5 55 10 55 6 0 10
5 10 10 0 6 -67 10 -180 10 l-180 0 0 -38 c0 -39 -14 -62 -37 -62 -17 0 -17
26 0 34 10 5 10 7 0 12 -18 8 -16 24 3 24 9 0 14 7 12 17 -3 19 -29 29 -41 17z
m383 -44 c0 -13 -7 -20 -20 -20 -13 0 -20 7 -20 20 0 13 7 20 20 20 13 0 20
-7 20 -20z m-160 -40 c0 -5 -4 -10 -10 -10 -5 0 -10 5 -10 10 0 6 5 10 10 10
6 0 10 -4 10 -10z"/>
<path d="M1957 893 c7 -44 19 -63 42 -63 10 -1 5 -7 -12 -16 -16 -9 -27 -18
-24 -21 3 -2 14 0 25 6 11 6 28 8 36 5 13 -5 16 3 16 50 0 43 3 56 15 56 8 0
15 5 15 10 0 6 -26 10 -59 10 l-60 0 6 -37z m61 -10 c-2 -17 -9 -28 -18 -28
-9 0 -16 11 -18 28 -3 22 1 27 18 27 17 0 21 -5 18 -27z"/>
<path d="M2471 777 c2 -1 13 -9 24 -17 19 -14 19 -14 6 3 -7 9 -18 17 -24 17
-6 0 -8 -1 -6 -3z"/>
<path d="M20 255 l0 -235 45 0 45 0 0 235 0 235 -45 0 -45 0 0 -235z"/>
<path d="M200 255 l0 -235 50 0 50 0 0 235 0 235 -50 0 -50 0 0 -235z"/>
<path d="M352 453 l3 -38 68 -3 67 -3 0 -194 0 -195 45 0 45 0 0 195 0 195 65
0 65 0 0 40 0 40 -181 0 -180 0 3 -37z"/>
<path d="M1140 311 c0 -193 -5 -211 -53 -211 -31 0 -67 27 -67 51 0 16 -7 19
-50 19 -48 0 -50 -1 -50 -27 0 -40 32 -87 73 -106 43 -21 138 -22 176 -3 60
31 65 52 69 264 l4 192 -51 0 -51 0 0 -179z"/>
<path d="M1399 423 c-12 -38 -48 -144 -80 -236 l-59 -168 52 3 51 3 16 50 16
50 82 3 82 3 17 -56 18 -55 49 0 c35 0 48 4 45 13 -2 8 -37 113 -78 235 l-75
222 -57 0 -56 0 -23 -67z m110 -132 c11 -36 21 -69 21 -73 0 -4 -22 -8 -50 -8
-31 0 -50 4 -50 11 0 29 42 151 49 143 5 -5 18 -38 30 -73z"/>
<path d="M1740 255 l0 -235 45 0 45 0 0 122 c0 67 3 119 6 116 3 -3 25 -57 48
-119 41 -108 45 -114 73 -117 29 -3 30 -2 73 117 24 66 46 119 48 117 2 -3 5
-55 5 -118 l2 -113 48 -3 47 -3 0 235 0 236 -57 0 -58 0 -54 -150 c-29 -83
-55 -150 -56 -150 -2 0 -9 17 -16 37 -6 21 -30 89 -51 151 l-40 112 -54 0 -54
0 0 -235z"/>
<path d="M2270 255 l0 -235 50 0 49 0 3 122 3 123 44 -123 43 -123 32 3 c30 3
32 7 72 115 22 62 43 116 47 119 4 4 7 -48 7 -115 l0 -122 48 3 47 3 3 233 2
233 -61 -3 -62 -3 -51 -149 c-58 -171 -47 -174 -116 32 l-42 122 -59 0 -59 0
0 -235z"/>
<path d="M2802 312 c4 -199 12 -225 78 -269 43 -30 148 -32 200 -5 62 33 70
63 70 270 l0 182 -45 0 -45 0 0 -169 c0 -155 -2 -170 -21 -195 -25 -32 -75
-35 -110 -7 -23 19 -24 24 -27 195 l-4 176 -50 0 -50 0 4 -178z"/>
</g>
</svg>
