<svg xmlns="http://www.w3.org/2000/svg" xmlns:xlink="http://www.w3.org/1999/xlink" viewBox="0 0 3500 3500" width="3500" height="3500" preserveAspectRatio="xMidYMid meet" style="width: 100%; height: 100%; transform: translate3d(0px, 0px, 0px); content-visibility: visible;" id="Atom Loader"><defs><clipPath id="__lottie_element_16895"><rect width="3500" height="3500" x="0" y="0"/></clipPath></defs><g clip-path="url(#__lottie_element_16895)"><g transform="matrix(1,0,0,1,1750,1750)" opacity="1" style="display: block;"><g opacity="1" transform="matrix(1,0,0,1,0,0)"><path stroke-linecap="round" stroke-linejoin="round" fill-opacity="0" stroke="rgb(252,57,57)" stroke-opacity="1" stroke-width="29" d=" M50,-1190 C-590,-1198 -534,1206 10,1210 C618.1939697265625,1214.470947265625 524.0679931640625,-1190 50,-1190"/></g></g><g transform="matrix(-0.48480960726737976,0.874619722366333,-0.874619722366333,-0.48480960726737976,1750,1750)" opacity="1" style="display: block;"><g opacity="1" transform="matrix(1,0,0,1,0,0)"><path stroke-linecap="round" stroke-linejoin="round" fill-opacity="0" stroke="rgb(57,66,252)" stroke-opacity="1" stroke-width="29" d=" M50,-1190 C-590,-1198 -534,1206 10,1210 C618.1939697265625,1214.470947265625 524.0679931640625,-1190 50,-1190"/></g></g><g transform="matrix(-0.33493080735206604,-0.7890475392341614,0.9163994193077087,-0.3889884650707245,1750,1750)" opacity="1" style="display: block;"><g opacity="1" transform="matrix(1,0,0,1,0,0)"><path stroke-linecap="round" stroke-linejoin="round" fill-opacity="0" stroke="rgb(61,252,57)" stroke-opacity="1" stroke-width="29" d=" M50,-1190 C-590,-1198 -612.0469970703125,1236.3709716796875 10,1210 C617.968994140625,1184.2259521484375 673.60400390625,-1165.8590087890625 50,-1190"/></g></g><g transform="matrix(1,0,0,1,1645.082275390625,1700.17041015625)" opacity="1" style="display: block;"><g opacity="1" transform="matrix(1,0,0,1,1114,-542)"><path fill="rgb(0,0,0)" fill-opacity="1" d=" M0,-168 C92.71920013427734,-168 168,-92.71920013427734 168,0 C168,92.71920013427734 92.71920013427734,168 0,168 C-92.71920013427734,168 -168,92.71920013427734 -168,0 C-168,-92.71920013427734 -92.71920013427734,-168 0,-168z"/></g></g><g transform="matrix(1,0,0,1,-483.2991943359375,1805.5380859375)" opacity="1" style="display: block;"><g opacity="1" transform="matrix(1,0,0,1,1114,-542)"><path fill="rgb(0,0,0)" fill-opacity="1" d=" M0,-168 C92.71920013427734,-168 168,-92.71920013427734 168,0 C168,92.71920013427734 92.71920013427734,168 0,168 C-92.71920013427734,168 -168,92.71920013427734 -168,0 C-168,-92.71920013427734 -92.71920013427734,-168 0,-168z"/></g></g><g transform="matrix(1,0,0,1,719.7042236328125,3475.6240234375)" opacity="1" style="display: block;"><g opacity="1" transform="matrix(1,0,0,1,1114,-542)"><path fill="rgb(0,0,0)" fill-opacity="1" d=" M0,-168 C92.71920013427734,-168 168,-92.71920013427734 168,0 C168,92.71920013427734 92.71920013427734,168 0,168 C-92.71920013427734,168 -168,92.71920013427734 -168,0 C-168,-92.71920013427734 -92.71920013427734,-168 0,-168z"/></g></g><g transform="matrix(1,0,0,1,1678,1738)" opacity="1" style="display: block;"><g opacity="1" transform="matrix(1,0,0,1,66,-6)"><path fill="rgb(0,0,0)" fill-opacity="1" d=" M0,-288 C158.94720458984375,-288 288,-158.94720458984375 288,0 C288,158.94720458984375 158.94720458984375,288 0,288 C-158.94720458984375,288 -288,158.94720458984375 -288,0 C-288,-158.94720458984375 -158.94720458984375,-288 0,-288z"/></g></g><g transform="matrix(1,0,0,1,1750,1750)" opacity="1" style="display: block;"><g opacity="1" transform="matrix(1,0,0,1,0,0)"><path stroke-linecap="round" stroke-linejoin="round" fill-opacity="0" stroke-dasharray=" 2748" stroke-dashoffset="-96.89656066894531" stroke="rgb(0,0,0)" stroke-opacity="1" stroke-width="73" d=" M50,-1190 C-590,-1198 -534,1206 10,1210 C618.1939697265625,1214.470947265625 524.0679931640625,-1190 50,-1190"/></g></g><g transform="matrix(-0.48480960726737976,0.874619722366333,-0.874619722366333,-0.48480960726737976,1750,1750)" opacity="1" style="display: block;"><g opacity="1" transform="matrix(1,0,0,1,0,0)"><path stroke-linecap="round" stroke-linejoin="round" fill-opacity="0" stroke-dasharray=" 2748" stroke-dashoffset="-96.89656066894531" stroke="rgb(0,0,0)" stroke-opacity="1" stroke-width="73" d=" M50,-1190 C-590,-1198 -534,1206 10,1210 C618.1939697265625,1214.470947265625 524.0679931640625,-1190 50,-1190"/></g></g><g transform="matrix(-0.33493080735206604,-0.7890475392341614,0.9163994193077087,-0.3889884650707245,1750,1750)" opacity="1" style="display: block;"><g opacity="1" transform="matrix(1,0,0,1,0,0)"><path stroke-linecap="round" stroke-linejoin="round" fill-opacity="0" stroke-dasharray=" 2748" stroke-dashoffset="-96.89656066894531" stroke="rgb(0,0,0)" stroke-opacity="1" stroke-width="73" d=" M50,-1190 C-590,-1198 -612.0469970703125,1236.3709716796875 10,1210 C617.968994140625,1184.2259521484375 673.60400390625,-1165.8590087890625 50,-1190"/></g></g></g></svg>