 <svg  version="1.0" xmlns="http://www.w3.org/2000/svg"  width="300.000000pt" height="291.000000pt" viewBox="0 0 300.000000 291.000000"  preserveAspectRatio="xMidYMid meet">  <g transform="translate(0.000000,291.000000) scale(0.100000,-0.100000)" fill="#f9d243" stroke="none"> <path d="M2105 2489 c-44 -39 -64 -75 -67 -125 -3 -36 -7 -40 -101 -96 -70 -41 -104 -57 -120 -53 -56 15 -141 -92 -135 -170 3 -36 6 -40 31 -43 38 -5 99 58 116 120 12 43 17 48 124 111 82 48 115 63 124 55 10 -8 13 -3 13 23 1 50 31 109 78 151 38 35 40 38 22 48 -30 16 -47 12 -85 -21z m45 -4 c0 -3 -11 -18 -25 -33 -14 -15 -31 -42 -37 -59 -10 -28 -28 -45 -28 -28 0 17 34 83 52 102 20 22 38 30 38 18z m-325 -304 c3 -5 1 -12 -4 -15 -5 -3 -12 -21 -15 -40 -6 -32 -66 -106 -86 -106 -29 0 -14 85 22 131 26 32 71 48 83 30z"/> <path d="M2200 2429 c-17 -17 -38 -45 -47 -62 -20 -39 -22 -105 -4 -116 10 -7 10 -64 -4 -330 l-17 -321 -29 -33 c-16 -17 -35 -52 -43 -76 -12 -43 -15 -45 -207 -157 -107 -62 -197 -114 -201 -114 -4 0 -35 41 -68 90 l-61 91 36 41 c55 65 71 156 29 172 -27 10 -89 -38 -113 -86 -24 -50 -28 -113 -8 -125 8 -4 45 -55 83 -112 l70 -104 -79 -206 c-63 -164 -86 -212 -112 -237 -18 -17 -41 -46 -50 -64 -17 -32 -17 -33 -73 -27 -32 4 -130 12 -219 19 l-162 12 1 31 c3 69 -37 74 -97 11 -68 -71 -81 -176 -21 -176 27 0 96 63 96 87 0 11 9 13 38 9 20 -3 100 -10 177 -16 227 -17 235 -18 235 -44 0 -20 27 -56 42 -56 3 0 8 16 11 34 11 66 46 123 99 161 20 14 21 17 7 25 -14 8 -7 35 64 218 l81 209 91 51 c49 28 139 80 200 116 97 57 111 63 126 50 23 -20 29 -18 29 14 1 43 37 112 81 153 l41 38 -26 7 c-31 8 -30 -22 -10 349 l15 288 38 44 c93 105 57 237 -39 142z m70 -24 c0 -52 -84 -170 -102 -142 -21 34 -5 91 40 140 33 35 62 36 62 2z m-100 -810 c0 -3 -18 -29 -39 -58 -22 -29 -43 -64 -46 -79 -4 -16 -11 -28 -15 -28 -16 0 23 94 53 133 27 33 47 47 47 32z m-603 -87 c-14 -29 -35 -64 -47 -78 -22 -24 -22 -24 -36 -5 -25 34 5 112 59 150 18 13 23 13 35 1 12 -12 11 -22 -11 -68z m-117 -794 c-18 -21 -41 -57 -51 -81 -17 -41 -20 -43 -35 -29 -14 15 -11 21 30 69 58 65 69 76 80 77 4 0 -6 -16 -24 -36z m-547 -11 c6 -34 3 -42 -35 -80 -23 -24 -51 -43 -61 -43 -18 0 -19 5 -13 47 4 35 15 54 41 80 45 43 61 42 68 -4z"/> <path d="M1663 2261 c-45 -28 -83 -97 -83 -152 0 -28 -25 -118 -66 -242 -52 -155 -71 -201 -90 -213 -33 -22 -63 -75 -72 -125 -7 -41 -10 -44 -112 -105 -58 -35 -111 -64 -118 -64 -29 0 -75 -45 -98 -94 -26 -56 -30 -96 -12 -114 44 -44 146 62 148 153 1 27 10 35 101 88 68 39 106 56 120 52 15 -5 19 -2 19 19 0 53 68 163 110 178 13 5 12 8 -3 19 -16 13 -14 25 43 194 34 99 65 182 70 183 6 2 10 16 10 31 0 41 47 127 87 160 34 28 34 30 15 40 -27 15 -32 14 -69 -8z m10 -44 c-11 -12 -32 -42 -46 -67 -19 -31 -27 -39 -27 -25 0 25 34 82 63 106 29 23 36 15 10 -14z m-223 -591 c-12 -14 -36 -51 -52 -83 -16 -32 -27 -47 -24 -33 3 14 6 33 6 42 0 17 81 111 89 103 2 -3 -6 -16 -19 -29z m-320 -352 c-12 -52 -52 -104 -81 -104 -42 0 -24 73 31 132 50 52 66 43 50 -28z"/> <path d="M2233 1541 c-68 -42 -111 -175 -65 -200 57 -31 165 126 134 194 -14 30 -27 31 -69 6z m44 -27 c16 -43 -44 -144 -87 -144 -36 0 -16 79 34 133 28 31 44 34 53 11z"/> <path d="M983 1399 c-43 -28 -87 -117 -79 -161 7 -40 -102 -408 -121 -408 -20 0 -73 -51 -92 -89 -35 -68 -36 -97 -4 -128 l28 -28 6 40 c7 54 41 117 80 150 18 15 33 35 34 44 2 23 122 415 141 461 17 40 48 78 83 102 l24 17 -27 11 c-36 13 -36 13 -73 -11z m12 -43 c-15 -19 -35 -56 -45 -83 -16 -41 -19 -44 -20 -20 0 40 24 90 55 115 38 30 40 28 10 -12z m-225 -575 c0 -5 -6 -14 -14 -20 -8 -6 -20 -26 -27 -44 -7 -18 -20 -39 -28 -47 -13 -13 -13 -11 -7 15 13 54 76 134 76 96z"/> <path d="M1530 688 c-88 -60 -111 -231 -28 -199 50 19 108 112 108 173 0 17 -25 48 -39 48 -5 0 -23 -10 -41 -22z m48 -25 c14 -28 -6 -79 -50 -128 -25 -27 -29 -28 -44 -14 -22 22 -4 83 36 127 35 37 46 39 58 15z"/> </g> </svg> 